<?xml version="1.0" standalone="no"?>
<!DOCTYPE svg PUBLIC "-//W3C//DTD SVG 20010904//EN"
 "http://www.w3.org/TR/2001/REC-SVG-20010904/DTD/svg10.dtd">
<svg version="1.0" xmlns="http://www.w3.org/2000/svg"
 width="300.000000pt" height="297.000000pt" viewBox="0 0 300.000000 297.000000"
 preserveAspectRatio="xMidYMid meet">
<metadata>
Created by potrace 1.10, written by Peter Selinger 2001-2011
</metadata>
<g transform="translate(0.000000,297.000000) scale(0.100000,-0.100000)"
fill="#000000" stroke="none">
<path d="M1433 2691 c-124 -64 -278 -195 -360 -305 -33 -45 -43 -67 -43 -97 0
-65 55 -190 131 -296 72 -102 75 -108 58 -118 -39 -25 -122 57 -276 272 -21
29 -42 51 -47 50 -18 -6 -145 -229 -166 -290 -11 -34 -20 -78 -20 -99 0 -81
84 -233 204 -372 36 -41 61 -78 56 -81 -6 -4 -41 17 -78 46 -120 95 -246 201
-280 237 -18 19 -37 31 -41 26 -51 -55 -82 -440 -46 -561 30 -102 95 -161 249
-229 75 -33 91 -57 41 -62 -61 -8 -149 21 -231 75 -14 8 -26 14 -28 12 -2 -2
2 -41 10 -87 31 -178 141 -397 238 -474 112 -89 247 -132 367 -116 66 9 252
78 304 114 l36 24 57 -35 c84 -52 189 -93 271 -106 145 -24 270 23 393 148
159 162 278 454 242 590 -6 21 -7 21 -82 -14 -115 -52 -220 -93 -241 -93 -23
0 -34 25 -18 38 7 5 66 37 132 70 135 68 176 103 193 160 16 53 15 165 -3 303
-19 143 -37 216 -77 302 -31 67 -46 79 -67 53 -32 -38 -242 -188 -256 -183
-25 10 -17 31 36 87 182 196 182 195 142 309 -38 112 -90 204 -160 281 -72 81
-57 91 -152 -98 -34 -67 -65 -122 -70 -122 -23 0 -19 26 19 138 43 128 52 210
26 260 -23 44 -136 146 -227 204 -148 96 -131 94 -236 39z m120 -1 c18 -8 26
-19 22 -28 -5 -12 -3 -13 10 -2 13 11 14 10 9 -6 -4 -10 -16 -32 -27 -47 -10
-16 -17 -30 -14 -33 2 -3 17 16 32 43 25 41 29 45 36 28 4 -11 8 -14 8 -7 1 7
6 10 12 6 6 -3 8 -15 6 -26 -5 -16 -3 -17 10 -6 13 10 17 10 20 0 3 -6 9 -10
14 -6 5 3 12 -2 15 -10 3 -9 12 -16 20 -16 19 0 141 -121 152 -151 8 -20 7
-80 -1 -144 -4 -32 -39 -115 -48 -115 -5 0 -9 -5 -9 -11 0 -5 5 -7 10 -4 6 3
10 1 10 -4 0 -6 -6 -11 -12 -11 -9 0 -13 -17 -14 -50 -1 -27 1 -49 5 -48 20 2
31 -3 25 -13 -5 -8 -1 -8 14 0 14 7 23 8 27 1 8 -13 25 -3 24 13 0 9 -2 8 -6
-1 -2 -6 -9 -10 -13 -7 -10 6 25 75 44 87 6 4 7 8 2 8 -5 0 -2 7 5 16 7 9 14
24 16 34 4 28 57 110 68 106 6 -2 9 -10 9 -19 -1 -9 4 -13 11 -10 8 2 19 -6
26 -18 6 -13 22 -34 35 -48 13 -14 24 -31 24 -37 0 -6 9 -22 21 -35 17 -19 20
-33 16 -69 -3 -25 -3 -37 0 -27 7 28 17 20 40 -32 27 -62 28 -160 1 -120 -6
10 -7 6 -3 -11 5 -21 -6 -37 -67 -101 -127 -131 -140 -148 -126 -163 7 -8 17
-11 22 -8 5 3 7 -1 4 -9 -4 -10 3 -14 23 -15 16 -1 29 2 29 7 0 8 40 24 53 21
5 -1 6 2 3 7 -4 5 8 20 26 32 18 13 36 28 40 34 4 6 32 28 63 49 54 38 56 38
70 20 9 -10 14 -29 12 -41 -3 -16 0 -20 12 -15 14 5 14 4 1 -13 -9 -11 -10
-16 -2 -11 7 4 12 2 12 -6 0 -8 -6 -20 -12 -28 -11 -12 -10 -12 5 -1 10 8 17
9 17 3 0 -6 2 -17 6 -25 3 -8 -7 -29 -22 -46 -14 -18 -24 -34 -22 -37 3 -2 13
7 22 21 24 37 33 31 40 -27 5 -37 4 -54 -6 -61 -9 -6 -8 -7 5 -3 34 11 16 -21
-45 -80 -70 -67 -132 -112 -208 -150 -29 -14 -49 -28 -47 -31 15 -15 211 112
264 171 21 23 42 43 47 44 12 3 17 -146 5 -154 -5 -3 -9 -11 -9 -17 0 -8 3 -8
9 2 6 10 10 10 16 1 4 -7 -2 -24 -13 -40 -20 -27 -20 -28 -2 -23 28 7 25 -7
-10 -47 -35 -41 -39 -61 -7 -34 l22 19 -19 -22 c-10 -13 -22 -20 -26 -18 -4 3
-10 -1 -13 -9 -7 -17 -138 -88 -152 -82 -5 3 0 8 13 11 12 4 22 11 22 16 0 4
-39 -11 -87 -36 -49 -24 -117 -53 -153 -64 -57 -18 -307 -66 -443 -86 -27 -3
-47 -8 -45 -11 5 -4 165 17 283 36 87 15 197 40 220 51 36 16 108 39 112 36 2
-2 -29 -19 -69 -37 -50 -22 -115 -40 -203 -55 -71 -13 -116 -23 -100 -24 53
-2 207 29 267 54 55 22 64 21 59 -7 0 -5 4 -8 10 -8 6 0 9 -6 6 -13 -5 -13 20
-14 71 -3 13 3 20 1 17 -5 -10 -16 7 -10 24 9 9 10 29 19 44 20 16 1 35 9 43
17 14 13 29 19 37 13 1 -1 21 10 44 25 33 21 43 24 52 13 12 -14 6 -83 -10
-102 -7 -8 -7 -13 1 -16 7 -2 7 -13 -1 -33 -8 -22 -32 -43 -83 -73 -39 -24
-60 -40 -46 -36 14 4 27 11 28 15 2 5 11 9 21 9 9 0 27 9 39 20 23 22 33 5 10
-18 -6 -6 -13 -17 -14 -24 -5 -31 -25 -69 -33 -63 -5 3 -13 0 -17 -6 -5 -8 -3
-9 6 -4 10 6 12 4 7 -9 -4 -10 -7 -22 -7 -27 0 -5 -5 -8 -12 -7 -7 2 -13 -1
-13 -7 -5 -36 -20 -67 -37 -76 -21 -11 -185 -13 -213 -3 -8 3 -15 1 -15 -5 0
-10 14 -12 157 -15 31 -1 51 -5 49 -11 -2 -6 -43 -9 -102 -7 -100 2 -233 29
-283 58 -26 14 -25 14 14 9 35 -5 37 -4 15 5 -13 6 -36 8 -50 5 -14 -4 -21 -3
-17 1 4 5 -12 14 -35 21 -52 15 -58 16 -58 3 0 -6 3 -9 8 -8 4 1 33 -10 66
-26 109 -52 249 -86 396 -95 21 -1 22 -3 9 -11 -42 -25 -305 32 -421 91 -33
17 -62 28 -64 26 -3 -3 23 -19 57 -37 81 -42 205 -82 294 -94 79 -12 97 -18
87 -28 -24 -24 -291 53 -409 118 -35 19 -63 33 -63 30 0 -3 14 -13 30 -21 17
-9 28 -20 25 -25 -4 -6 1 -7 11 -3 11 4 15 2 11 -4 -8 -13 49 -51 123 -82 69
-30 180 -62 191 -56 4 3 10 1 14 -5 11 -18 -62 -11 -127 11 -85 29 -165 70
-222 114 -60 46 -70 41 -13 -7 62 -51 144 -95 223 -119 136 -41 136 -54 -1
-19 -83 21 -147 56 -235 127 l-55 45 59 -55 c79 -73 166 -124 228 -132 35 -5
46 -10 37 -16 -48 -30 -171 34 -286 147 -45 45 -78 74 -73 65 15 -28 184 -187
223 -210 44 -27 47 -32 10 -22 -53 16 -98 51 -165 128 -125 147 -131 149 -26
13 36 -47 81 -98 99 -114 26 -21 28 -24 7 -12 -15 9 -33 14 -40 11 -26 -9
-104 61 -131 119 -15 31 -29 56 -32 56 -7 0 22 -68 41 -97 7 -12 14 -26 14
-30 -1 -14 -40 40 -66 90 -31 60 -39 61 -14 2 22 -50 21 -51 -20 -30 -22 11
-30 23 -31 43 l-1 27 -7 -29 c-3 -16 -17 -36 -30 -44 l-23 -16 22 44 c13 25
27 48 32 51 6 4 8 15 6 25 -3 14 -10 7 -27 -28 -29 -59 -86 -111 -155 -142
-75 -33 -100 -41 -92 -27 5 7 1 9 -8 5 -9 -3 -14 -9 -12 -13 5 -8 -6 -10 -114
-15 -48 -2 -76 -1 -65 4 11 4 51 20 89 36 77 31 183 106 236 168 29 34 25 32
-26 -14 -108 -99 -265 -181 -342 -179 -33 1 -31 2 28 18 36 10 81 25 101 33
56 25 171 103 204 140 l30 33 -30 -26 c-55 -48 -155 -110 -223 -138 -64 -27
-199 -50 -188 -32 3 4 32 11 65 14 143 15 293 111 474 305 58 63 61 75 5 27
-24 -20 -43 -40 -43 -44 0 -20 -110 -120 -188 -172 -116 -77 -180 -100 -292
-105 l-90 -4 103 19 c96 18 232 65 232 81 0 4 11 10 23 14 13 3 35 16 48 29
13 12 40 33 59 46 19 13 43 34 53 48 16 21 11 19 -30 -11 -26 -19 -59 -45 -73
-58 -13 -12 -31 -23 -40 -23 -8 0 -14 -6 -12 -13 1 -8 -2 -11 -7 -7 -6 3 -34
-6 -62 -21 -120 -60 -300 -94 -328 -61 -6 8 -7 18 -3 22 4 5 2 5 -4 2 -6 -4
-19 2 -29 13 -10 11 -15 20 -10 20 4 0 -3 9 -16 20 l-24 19 49 -14 c53 -16
126 -18 166 -5 16 5 4 6 -31 3 -104 -10 -219 37 -219 88 0 13 -4 18 -12 13 -7
-4 -10 -3 -5 1 4 5 -1 17 -10 28 -20 23 -16 21 55 -26 59 -40 139 -58 253 -56
67 2 64 3 -37 9 -92 7 -121 13 -168 36 -57 28 -146 104 -146 125 0 12 29 -7
43 -28 11 -17 106 -79 142 -93 37 -14 165 -29 159 -18 -3 4 -22 8 -43 8 -101
0 -265 98 -308 184 -13 27 -9 25 33 -17 68 -69 172 -128 253 -143 76 -15 158
-17 216 -4 29 6 20 7 -36 3 -87 -6 -187 8 -250 37 -65 28 -163 100 -197 143
-17 20 -32 34 -34 30 -3 -5 -3 -2 -2 5 2 6 0 12 -4 12 -4 0 -8 8 -9 18 -1 9
-2 22 -3 27 -6 30 3 32 52 8 29 -14 72 -38 95 -54 82 -56 244 -110 325 -108
41 2 40 2 -13 9 -113 14 -277 76 -310 116 -8 10 -9 15 -4 12 33 -19 138 -63
199 -83 81 -27 229 -46 343 -44 65 2 56 3 -52 10 -71 5 -150 13 -175 20 -25 6
-56 13 -69 15 -13 3 -40 12 -60 21 -20 8 -49 18 -65 22 -32 7 -48 31 -21 31
24 0 45 25 40 49 -2 12 -3 21 -2 21 1 0 26 -9 55 -20 29 -11 58 -18 63 -14 6
3 25 -1 44 -10 36 -18 248 -57 298 -55 18 0 -17 9 -77 19 -91 16 -160 33 -294
76 -14 5 -15 4 -2 -5 26 -19 -9 -13 -58 9 -23 11 -40 15 -37 10 7 -12 3 -12
-20 -4 -12 5 -13 9 -5 14 8 5 -6 15 -36 26 -89 34 -183 120 -234 215 -42 80
-37 95 8 22 56 -92 72 -110 137 -160 56 -42 175 -109 175 -98 0 2 -21 16 -47
29 -82 41 -167 111 -217 176 -70 94 -79 120 -82 240 -2 103 -2 104 13 65 39
-107 68 -170 90 -195 12 -15 23 -32 23 -37 0 -5 33 -40 74 -79 83 -80 200
-146 331 -188 104 -33 296 -76 332 -75 20 1 22 3 8 6 -343 76 -402 94 -520
158 -133 73 -252 213 -309 363 -33 86 -47 152 -34 152 6 0 8 11 6 24 -3 15 0
27 8 30 8 3 12 17 9 36 -2 17 0 28 6 25 5 -4 9 0 9 7 0 7 16 -12 36 -41 20
-30 69 -86 108 -126 51 -51 54 -53 12 -8 -33 34 -56 66 -52 70 4 4 12 0 17
-10 6 -9 14 -15 20 -12 5 4 13 -2 17 -12 4 -10 12 -18 18 -18 13 0 91 -62 138
-110 16 -16 25 -23 21 -15 -7 13 -6 13 7 2 22 -18 66 -6 64 18 -1 10 -10 29
-21 42 -94 110 -135 161 -135 170 0 6 -6 16 -14 22 -22 17 -68 107 -62 122 3
7 -2 18 -9 24 -19 16 -30 77 -17 93 5 6 12 31 15 55 3 23 13 55 23 70 l18 27
14 -48 c7 -27 15 -47 18 -45 2 3 -1 20 -6 39 -15 50 -12 105 5 119 8 7 15 19
15 27 0 8 5 11 10 8 6 -3 10 1 10 10 0 9 9 28 20 42 18 23 25 23 21 0 -1 -5 3
-5 9 -2 7 4 14 -2 17 -14 3 -11 9 -19 13 -16 4 2 17 -14 29 -35 12 -22 27 -40
33 -40 6 0 8 -3 5 -6 -4 -4 1 -14 11 -23 33 -31 67 -74 52 -66 -21 11 -4 -5
50 -46 47 -36 106 -67 95 -49 -5 9 7 14 26 12 16 -2 -4 83 -26 112 -14 18 -25
36 -25 39 0 3 -12 19 -26 34 -33 35 -49 74 -34 83 7 4 5 12 -6 21 -15 11 -16
12 -10 0 6 -9 5 -12 -5 -9 -8 3 -15 18 -15 34 -2 58 -3 61 -14 44 -5 -8 -10
-10 -10 -4 0 5 6 16 13 23 10 10 9 12 -2 9 -10 -2 -14 11 -17 50 -2 31 1 50 7
47 5 -4 9 1 9 9 0 9 8 24 19 35 10 10 21 25 24 32 5 12 7 11 17 -1 10 -13 11
-13 6 2 -7 23 40 79 60 71 9 -3 12 0 9 9 -4 9 5 22 22 33 15 10 37 27 48 38
26 25 126 91 144 95 7 1 29 14 49 27 20 14 39 24 42 22 3 -1 18 -9 33 -17z
m-863 -1163 c0 -6 -9 -2 -20 8 -11 10 -20 23 -20 28 0 6 9 2 20 -8 11 -10 20
-23 20 -28z m-58 -516 c18 -18 56 -49 85 -69 29 -19 53 -37 53 -39 0 -5 -87
45 -108 61 -44 36 -80 74 -90 93 -18 34 -13 41 8 13 11 -14 35 -40 52 -59z
m1278 -616 c52 -21 133 -46 180 -56 l85 -19 -65 4 c-68 4 -233 59 -294 98 -36
23 -33 22 94 -27z"/>
<path d="M1598 2598 c-8 -13 -20 -34 -27 -48 -12 -24 -11 -24 4 -5 19 23 48
75 41 75 -2 0 -10 -10 -18 -22z"/>
<path d="M1510 2604 c0 -6 7 -19 16 -30 14 -18 14 -18 3 6 -14 31 -19 36 -19
24z"/>
<path d="M1614 2556 c-18 -20 -47 -66 -41 -66 8 0 61 70 56 74 -2 2 -9 -1 -15
-8z"/>
<path d="M1420 2539 c0 -5 5 -7 10 -4 6 3 10 8 10 11 0 2 -4 4 -10 4 -5 0 -10
-5 -10 -11z"/>
<path d="M1466 2495 c4 -8 8 -15 10 -15 2 0 4 7 4 15 0 8 -4 15 -10 15 -5 0
-7 -7 -4 -15z"/>
<path d="M1606 2483 c-6 -14 -5 -15 5 -6 7 7 10 15 7 18 -3 3 -9 -2 -12 -12z"/>
<path d="M1440 2481 c0 -6 4 -13 10 -16 6 -3 7 1 4 9 -7 18 -14 21 -14 7z"/>
<path d="M1614 2438 c-55 -61 -68 -83 -17 -31 27 29 54 49 58 45 5 -4 5 -1 1
6 -9 16 -8 17 -42 -20z"/>
<path d="M1575 2450 c-3 -5 -1 -10 4 -10 6 0 11 5 11 10 0 6 -2 10 -4 10 -3 0
-8 -4 -11 -10z"/>
<path d="M1659 2433 c-13 -17 -13 -17 6 -3 11 8 22 16 24 17 2 2 0 3 -6 3 -6
0 -17 -8 -24 -17z"/>
<path d="M1183 2402 c-8 -5 -8 -13 1 -31 13 -24 13 -24 12 8 0 17 -1 31 -1 31
0 0 -5 -4 -12 -8z"/>
<path d="M1686 2402 c-2 -4 4 -8 14 -8 10 0 16 4 14 8 -3 4 -9 8 -14 8 -5 0
-11 -4 -14 -8z"/>
<path d="M1121 2384 c0 -11 3 -14 6 -6 3 7 2 16 -1 19 -3 4 -6 -2 -5 -13z"/>
<path d="M1360 2396 c0 -2 7 -9 15 -16 13 -11 14 -10 9 4 -5 14 -24 23 -24 12z"/>
<path d="M1480 2397 c0 -3 12 -12 26 -22 15 -9 23 -12 20 -6 -7 11 -46 35 -46
28z"/>
<path d="M1643 2364 c-26 -30 -30 -42 -7 -24 14 12 39 50 32 50 -2 0 -13 -12
-25 -26z"/>
<path d="M1596 2363 c-6 -14 -5 -15 5 -6 7 7 10 15 7 18 -3 3 -9 -2 -12 -12z"/>
<path d="M1846 2363 c-6 -14 -5 -15 5 -6 7 7 10 15 7 18 -3 3 -9 -2 -12 -12z"/>
<path d="M1476 2345 c4 -8 11 -15 16 -15 6 0 5 6 -2 15 -7 8 -14 15 -16 15 -2
0 -1 -7 2 -15z"/>
<path d="M1100 2330 c6 -11 12 -20 14 -20 2 0 2 9 -1 20 -3 11 -9 20 -15 20
-5 0 -4 -9 2 -20z"/>
<path d="M1136 2335 c4 -8 8 -15 10 -15 2 0 4 7 4 15 0 8 -4 15 -10 15 -5 0
-7 -7 -4 -15z"/>
<path d="M1236 2317 c3 -10 9 -15 12 -12 3 3 0 11 -7 18 -10 9 -11 8 -5 -6z"/>
<path d="M1640 2310 c-9 -6 -10 -10 -3 -10 6 0 15 5 18 10 8 12 4 12 -15 0z"/>
<path d="M1679 2293 l-24 -28 28 24 c25 23 32 31 24 31 -2 0 -14 -12 -28 -27z"/>
<path d="M1160 2285 c15 -42 43 -95 51 -95 6 0 -46 108 -57 119 -3 3 0 -8 6
-24z"/>
<path d="M1605 2289 c-9 -14 -2 -20 14 -10 8 6 9 11 3 15 -6 3 -14 1 -17 -5z"/>
<path d="M1853 2259 c-2 -23 3 -25 10 -4 4 8 3 16 -1 19 -4 3 -9 -4 -9 -15z"/>
<path d="M1575 2260 c-3 -5 -1 -10 4 -10 6 0 11 5 11 10 0 6 -2 10 -4 10 -3 0
-8 -4 -11 -10z"/>
<path d="M1135 2250 c3 -5 8 -10 11 -10 2 0 4 5 4 10 0 6 -5 10 -11 10 -5 0
-7 -4 -4 -10z"/>
<path d="M1679 2243 c-13 -16 -12 -17 4 -4 9 7 17 15 17 17 0 8 -8 3 -21 -13z"/>
<path d="M1599 2233 c-13 -16 -12 -17 4 -4 9 7 17 15 17 17 0 8 -8 3 -21 -13z"/>
<path d="M1340 2233 c0 -6 8 -17 18 -24 16 -13 16 -13 2 6 -8 11 -16 22 -17
24 -2 2 -3 0 -3 -6z"/>
<path d="M1620 2210 c-9 -6 -10 -10 -3 -10 6 0 15 5 18 10 8 12 4 12 -15 0z"/>
<path d="M1136 2178 c10 -34 44 -95 44 -80 0 14 -40 102 -47 102 -2 0 -1 -10
3 -22z"/>
<path d="M1175 2173 c15 -32 25 -42 25 -24 0 5 -9 19 -20 32 l-21 24 16 -32z"/>
<path d="M1649 2173 c-13 -16 -12 -17 4 -4 16 13 21 21 13 21 -2 0 -10 -8 -17
-17z"/>
<path d="M1736 2165 c-11 -8 -15 -15 -9 -15 6 0 16 7 23 15 16 19 11 19 -14 0z"/>
<path d="M1315 2140 c3 -5 8 -10 11 -10 2 0 4 5 4 10 0 6 -5 10 -11 10 -5 0
-7 -4 -4 -10z"/>
<path d="M1644 2128 l-19 -23 23 19 c21 18 27 26 19 26 -2 0 -12 -10 -23 -22z"/>
<path d="M1206 2115 c4 -8 8 -15 10 -15 2 0 4 7 4 15 0 8 -4 15 -10 15 -5 0
-7 -7 -4 -15z"/>
<path d="M1680 2120 c-8 -5 -10 -10 -5 -10 6 0 17 5 25 10 8 5 11 10 5 10 -5
0 -17 -5 -25 -10z"/>
<path d="M1781 2107 c-13 -21 -12 -21 5 -5 10 10 16 20 13 22 -3 3 -11 -5 -18
-17z"/>
<path d="M1140 2089 c0 -11 4 -18 10 -14 5 3 7 12 3 20 -7 21 -13 19 -13 -6z"/>
<path d="M940 2081 c0 -6 4 -13 10 -16 6 -3 7 1 4 9 -7 18 -14 21 -14 7z"/>
<path d="M1190 2081 c0 -5 5 -13 10 -16 6 -3 10 -2 10 4 0 5 -4 13 -10 16 -5
3 -10 2 -10 -4z"/>
<path d="M1430 2075 c0 -8 4 -15 10 -15 5 0 7 7 4 15 -4 8 -8 15 -10 15 -2 0
-4 -7 -4 -15z"/>
<path d="M2142 2070 c0 -14 2 -19 5 -12 2 6 2 18 0 25 -3 6 -5 1 -5 -13z"/>
<path d="M1370 2070 c0 -5 5 -10 11 -10 5 0 7 5 4 10 -3 6 -8 10 -11 10 -2 0
-4 -4 -4 -10z"/>
<path d="M851 2044 c1 -16 5 -40 9 -54 6 -17 7 -9 3 25 -6 56 -14 74 -12 29z"/>
<path d="M881 2047 c-1 -15 8 -53 18 -85 31 -91 121 -250 121 -213 0 5 -5 13
-10 16 -6 4 -8 10 -5 14 2 5 -7 19 -20 31 -14 13 -25 27 -25 31 0 5 -12 34
-27 65 -14 30 -32 81 -39 112 -7 36 -12 47 -13 29z"/>
<path d="M1300 2046 c0 -2 8 -10 18 -17 15 -13 16 -12 3 4 -13 16 -21 21 -21
13z"/>
<path d="M1980 2042 c0 -6 -12 -25 -27 -44 -22 -27 -23 -29 -4 -13 27 23 45
54 37 63 -3 3 -6 0 -6 -6z"/>
<path d="M832 2015 c0 -16 2 -22 5 -12 2 9 2 23 0 30 -3 6 -5 -1 -5 -18z"/>
<path d="M1410 2030 c0 -5 5 -10 11 -10 5 0 7 5 4 10 -3 6 -8 10 -11 10 -2 0
-4 -4 -4 -10z"/>
<path d="M2075 2019 c-4 -6 -5 -12 -2 -15 2 -3 7 2 10 11 7 17 1 20 -8 4z"/>
<path d="M1522 2000 c0 -14 2 -19 5 -12 2 6 2 18 0 25 -3 6 -5 1 -5 -13z"/>
<path d="M950 2003 c0 -6 8 -17 18 -24 16 -13 16 -13 2 6 -8 11 -16 22 -17 24
-2 2 -3 0 -3 -6z"/>
<path d="M1004 1974 c8 -17 23 -37 32 -45 16 -12 17 -12 9 1 -5 8 -13 20 -17
25 -5 6 -15 19 -24 30 -13 18 -13 17 0 -11z"/>
<path d="M1976 1983 c-6 -14 -5 -15 5 -6 7 7 10 15 7 18 -3 3 -9 -2 -12 -12z"/>
<path d="M843 1935 c6 -25 13 -45 17 -45 3 0 2 20 -4 45 -6 25 -13 45 -17 45
-3 0 -2 -20 4 -45z"/>
<path d="M1230 1971 c0 -6 4 -13 10 -16 6 -3 7 1 4 9 -7 18 -14 21 -14 7z"/>
<path d="M2030 1955 c-7 -9 -11 -17 -9 -20 3 -2 10 5 17 15 14 24 10 26 -8 5z"/>
<path d="M785 1921 c3 -24 21 -78 40 -119 19 -41 35 -81 35 -88 0 -8 5 -14 11
-14 5 0 8 -4 5 -8 -8 -13 48 -103 99 -157 25 -27 41 -40 36 -29 -6 12 -17 24
-26 28 -8 3 -15 12 -15 21 0 8 -4 15 -9 15 -8 0 -50 60 -59 85 -3 6 -24 54
-48 108 -25 53 -51 121 -59 150 l-15 52 5 -44z"/>
<path d="M870 1953 c0 -18 20 -66 25 -61 3 3 -1 20 -9 39 -9 19 -15 29 -16 22z"/>
<path d="M1899 1943 c-13 -17 -13 -17 6 -3 11 8 22 16 24 17 2 2 0 3 -6 3 -6
0 -17 -8 -24 -17z"/>
<path d="M2100 1930 c-18 -43 -9 -45 12 -4 10 19 14 34 9 34 -5 0 -14 -14 -21
-30z"/>
<path d="M1260 1941 c0 -6 4 -13 10 -16 6 -3 7 1 4 9 -7 18 -14 21 -14 7z"/>
<path d="M1420 1930 c0 -5 5 -10 11 -10 5 0 7 5 4 10 -3 6 -8 10 -11 10 -2 0
-4 -4 -4 -10z"/>
<path d="M2050 1908 c-12 -22 -12 -22 6 -6 10 10 15 20 12 24 -4 3 -12 -5 -18
-18z"/>
<path d="M2185 1909 c-4 -6 -5 -12 -2 -15 2 -3 7 2 10 11 7 17 1 20 -8 4z"/>
<path d="M1900 1899 c0 -5 5 -7 10 -4 6 3 10 8 10 11 0 2 -4 4 -10 4 -5 0 -10
-5 -10 -11z"/>
<path d="M1980 1900 c-8 -5 -12 -12 -9 -15 4 -3 12 1 19 10 14 17 11 19 -10 5z"/>
<path d="M760 1886 c0 -28 22 -96 32 -96 10 0 11 -5 -12 60 -11 30 -19 47 -20
36z"/>
<path d="M1030 1893 c0 -6 8 -17 18 -24 16 -13 16 -13 2 6 -8 11 -16 22 -17
24 -2 2 -3 0 -3 -6z"/>
<path d="M831 1873 c-1 -18 19 -67 25 -61 3 3 -2 21 -10 39 -8 19 -15 29 -15
22z"/>
<path d="M874 1843 c7 -20 18 -39 24 -41 7 -2 4 13 -6 37 -21 51 -35 54 -18 4z"/>
<path d="M900 1869 c0 -15 36 -79 45 -79 5 0 -32 78 -41 89 -2 2 -4 -2 -4 -10z"/>
<path d="M1010 1871 c0 -6 4 -13 10 -16 6 -3 7 1 4 9 -7 18 -14 21 -14 7z"/>
<path d="M1575 1870 c-3 -6 1 -7 9 -4 18 7 21 14 7 14 -6 0 -13 -4 -16 -10z"/>
<path d="M2116 1864 c-5 -14 -4 -15 9 -4 17 14 19 20 6 20 -5 0 -12 -7 -15
-16z"/>
<path d="M2116 1814 c-26 -30 -46 -57 -44 -59 4 -4 37 33 87 98 29 37 4 14
-43 -39z"/>
<path d="M2030 1840 c-6 -12 -9 -24 -7 -27 3 -2 11 5 17 17 6 12 9 24 7 27 -3
2 -11 -5 -17 -17z"/>
<path d="M1140 1847 c0 -3 12 -12 26 -22 15 -9 23 -12 20 -6 -7 11 -46 35 -46
28z"/>
<path d="M1076 1825 c4 -8 10 -15 15 -15 4 0 6 7 3 15 -4 8 -10 15 -15 15 -4
0 -6 -7 -3 -15z"/>
<path d="M1749 1823 c-13 -17 -13 -17 6 -3 11 8 22 16 24 17 2 2 0 3 -6 3 -6
0 -17 -8 -24 -17z"/>
<path d="M1979 1823 c-13 -16 -12 -17 4 -4 9 7 17 15 17 17 0 8 -8 3 -21 -13z"/>
<path d="M2162 1828 c-7 -7 -12 -16 -12 -20 0 -5 -20 -28 -45 -52 -25 -25 -45
-48 -45 -52 0 -14 91 79 106 109 16 29 15 34 -4 15z"/>
<path d="M751 1800 c0 -14 28 -72 29 -59 0 4 -7 22 -15 40 -8 19 -14 27 -14
19z"/>
<path d="M866 1787 c3 -10 9 -15 12 -12 3 3 0 11 -7 18 -10 9 -11 8 -5 -6z"/>
<path d="M1686 1785 c-11 -8 -17 -17 -14 -20 2 -3 13 4 23 15 21 23 18 25 -9
5z"/>
<path d="M907 1784 c-3 -4 6 -24 20 -45 28 -43 41 -52 22 -16 -7 12 -18 32
-24 44 -7 13 -15 20 -18 17z"/>
<path d="M1971 1770 c-13 -11 -19 -20 -14 -20 6 0 18 9 28 20 23 25 17 25 -14
0z"/>
<path d="M801 1775 c0 -5 11 -32 25 -60 13 -27 21 -39 18 -25 -7 29 -43 100
-43 85z"/>
<path d="M950 1770 c0 -5 5 -10 11 -10 5 0 7 5 4 10 -3 6 -8 10 -11 10 -2 0
-4 -4 -4 -10z"/>
<path d="M2026 1764 c-5 -14 -4 -15 9 -4 17 14 19 20 6 20 -5 0 -12 -7 -15
-16z"/>
<path d="M1590 1760 c-9 -6 -10 -10 -3 -10 6 0 15 5 18 10 8 12 4 12 -15 0z"/>
<path d="M1160 1745 c7 -8 17 -15 22 -15 6 0 5 7 -2 15 -7 8 -17 15 -22 15 -6
0 -5 -7 2 -15z"/>
<path d="M1630 1750 c-9 -6 -10 -10 -3 -10 6 0 15 5 18 10 8 12 4 12 -15 0z"/>
<path d="M970 1744 c0 -14 58 -102 73 -111 7 -4 3 6 -7 22 -48 75 -66 99 -66
89z"/>
<path d="M1150 1716 c25 -29 80 -71 80 -63 0 3 -24 24 -52 48 -33 27 -43 32
-28 15z"/>
<path d="M900 1729 c0 -4 9 -26 20 -51 23 -52 67 -110 107 -140 l28 -22 -30
34 c-16 19 -36 40 -43 48 -7 8 -24 35 -37 61 -27 52 -45 79 -45 70z"/>
<path d="M1431 1727 c2 -1 15 -11 29 -22 l25 -20 -19 23 c-11 12 -24 22 -29
22 -6 0 -8 -1 -6 -3z"/>
<path d="M1471 1727 c2 -1 13 -9 24 -17 19 -14 19 -14 6 3 -7 9 -18 17 -24 17
-6 0 -8 -1 -6 -3z"/>
<path d="M2016 1714 c-5 -14 -4 -15 9 -4 17 14 19 20 6 20 -5 0 -12 -7 -15
-16z"/>
<path d="M1190 1716 c0 -2 7 -7 16 -10 8 -3 12 -2 9 4 -6 10 -25 14 -25 6z"/>
<path d="M1730 1710 c-9 -6 -10 -10 -3 -10 6 0 15 5 18 10 8 12 4 12 -15 0z"/>
<path d="M793 1695 c0 -8 4 -15 9 -15 5 0 7 -3 4 -8 -2 -4 2 -16 10 -27 18
-24 18 -14 0 30 -16 38 -23 44 -23 20z"/>
<path d="M1045 1700 c3 -5 11 -10 16 -10 6 0 7 5 4 10 -3 6 -11 10 -16 10 -6
0 -7 -4 -4 -10z"/>
<path d="M1330 1690 c0 -6 7 -13 15 -17 24 -9 27 1 5 15 -13 8 -20 8 -20 2z"/>
<path d="M2015 1680 c-3 -5 -1 -10 4 -10 6 0 11 5 11 10 0 6 -2 10 -4 10 -3 0
-8 -4 -11 -10z"/>
<path d="M970 1672 c0 -11 79 -99 80 -88 0 5 -18 28 -40 52 -22 24 -40 40 -40
36z"/>
<path d="M1166 1667 c3 -10 9 -15 12 -12 3 3 0 11 -7 18 -10 9 -11 8 -5 -6z"/>
<path d="M1300 1670 c0 -5 5 -10 11 -10 5 0 7 5 4 10 -3 6 -8 10 -11 10 -2 0
-4 -4 -4 -10z"/>
<path d="M1090 1660 c0 -5 5 -10 11 -10 5 0 7 5 4 10 -3 6 -8 10 -11 10 -2 0
-4 -4 -4 -10z"/>
<path d="M1461 1667 c2 -1 13 -9 24 -17 19 -14 19 -14 6 3 -7 9 -18 17 -24 17
-6 0 -8 -1 -6 -3z"/>
<path d="M856 1647 c3 -10 9 -15 12 -12 3 3 0 11 -7 18 -10 9 -11 8 -5 -6z"/>
<path d="M1190 1640 c0 -5 5 -10 11 -10 5 0 7 5 4 10 -3 6 -8 10 -11 10 -2 0
-4 -4 -4 -10z"/>
<path d="M1387 1639 c7 -7 15 -10 18 -7 3 3 -2 9 -12 12 -14 6 -15 5 -6 -5z"/>
<path d="M1554 1635 c-10 -8 -14 -14 -9 -15 15 0 40 18 34 24 -3 3 -14 -1 -25
-9z"/>
<path d="M1240 1636 c0 -2 8 -10 18 -17 15 -13 16 -12 3 4 -13 16 -21 21 -21
13z"/>
<path d="M1301 1634 c-1 -7 10 -19 24 -28 21 -14 24 -14 19 -1 -4 8 -12 15
-19 15 -7 0 -16 6 -18 13 -4 7 -6 8 -6 1z"/>
<path d="M1370 1615 c13 -14 26 -25 28 -25 3 0 -5 11 -18 25 -13 14 -26 25
-28 25 -3 0 5 -11 18 -25z"/>
<path d="M1831 1620 c-13 -11 -19 -20 -14 -20 6 0 18 9 28 20 23 25 17 25 -14
0z"/>
<path d="M1060 1624 c0 -13 18 -39 24 -34 2 3 -2 14 -10 24 -8 11 -14 16 -14
10z"/>
<path d="M1929 1613 c-13 -16 -12 -17 4 -4 16 13 21 21 13 21 -2 0 -10 -8 -17
-17z"/>
<path d="M875 1610 c3 -5 8 -10 11 -10 2 0 4 5 4 10 0 6 -5 10 -11 10 -5 0 -7
-4 -4 -10z"/>
<path d="M586 1593 c-6 -14 -5 -15 5 -6 7 7 10 15 7 18 -3 3 -9 -2 -12 -12z"/>
<path d="M1125 1600 c3 -5 10 -10 16 -10 5 0 9 5 9 10 0 6 -7 10 -16 10 -8 0
-12 -4 -9 -10z"/>
<path d="M1430 1606 c0 -2 7 -9 15 -16 9 -7 15 -8 15 -2 0 5 -7 12 -15 16 -8
3 -15 4 -15 2z"/>
<path d="M1245 1590 c3 -5 8 -10 11 -10 2 0 4 5 4 10 0 6 -5 10 -11 10 -5 0
-7 -4 -4 -10z"/>
<path d="M860 1565 c0 -23 3 -27 10 -15 8 12 10 12 10 1 0 -8 3 -12 6 -8 3 3
-1 16 -10 29 l-16 22 0 -29z"/>
<path d="M1160 1574 c0 -8 5 -12 10 -9 6 4 8 11 5 16 -9 14 -15 11 -15 -7z"/>
<path d="M1390 1555 c19 -19 36 -35 39 -35 3 0 -10 16 -29 35 -19 19 -36 35
-39 35 -3 0 10 -16 29 -35z"/>
<path d="M1416 1577 c3 -10 9 -15 12 -12 3 3 0 11 -7 18 -10 9 -11 8 -5 -6z"/>
<path d="M1874 1574 c-18 -14 -18 -15 4 -4 12 6 22 13 22 15 0 8 -5 6 -26 -11z"/>
<path d="M2265 1580 c-3 -6 1 -7 9 -4 18 7 21 14 7 14 -6 0 -13 -4 -16 -10z"/>
<path d="M908 1565 c14 -26 92 -110 92 -99 -1 5 -24 34 -52 64 -28 30 -46 46
-40 35z"/>
<path d="M1060 1574 c0 -6 14 -23 32 -40 18 -16 26 -20 18 -9 -27 37 -50 59
-50 49z"/>
<path d="M1091 1577 c2 -1 13 -9 24 -17 19 -14 19 -14 6 3 -7 9 -18 17 -24 17
-6 0 -8 -1 -6 -3z"/>
<path d="M1270 1571 c0 -6 4 -13 10 -16 6 -3 7 1 4 9 -7 18 -14 21 -14 7z"/>
<path d="M1327 1559 c7 -7 15 -10 18 -7 3 3 -2 9 -12 12 -14 6 -15 5 -6 -5z"/>
<path d="M1615 1560 c-3 -6 1 -7 9 -4 18 7 21 14 7 14 -6 0 -13 -4 -16 -10z"/>
<path d="M1195 1550 c-4 -6 -3 -16 3 -22 6 -6 12 -6 17 2 4 6 3 16 -3 22 -6 6
-12 6 -17 -2z"/>
<path d="M1300 1551 c0 -6 4 -13 10 -16 6 -3 7 1 4 9 -7 18 -14 21 -14 7z"/>
<path d="M1455 1540 c10 -11 20 -20 23 -20 3 0 -3 9 -13 20 -10 11 -20 20 -23
20 -3 0 3 -9 13 -20z"/>
<path d="M2254 1527 c-92 -72 -96 -76 -39 -38 34 21 67 46 74 55 19 22 12 19
-35 -17z"/>
<path d="M2055 1540 c-3 -6 1 -7 9 -4 18 7 21 14 7 14 -6 0 -13 -4 -16 -10z"/>
<path d="M1746 1525 c-11 -8 -16 -15 -10 -15 5 0 18 7 28 15 11 8 16 15 10 15
-5 0 -18 -7 -28 -15z"/>
<path d="M590 1515 c0 -17 -2 -18 -11 -5 -9 12 -10 12 -5 -3 3 -10 6 -22 6
-25 0 -4 5 0 11 8 8 12 9 9 5 -13 -5 -20 4 -50 33 -112 22 -47 42 -85 45 -85
2 0 -13 38 -35 84 -58 124 -47 127 17 5 50 -98 90 -149 175 -224 20 -18 21
-18 16 -2 -4 11 -3 16 3 12 6 -3 10 -14 10 -24 0 -10 17 -27 40 -40 22 -12 40
-20 40 -16 0 3 10 -4 22 -15 12 -11 28 -18 35 -16 6 3 13 1 15 -3 8 -19 280
-124 421 -161 33 -9 44 -16 35 -21 -8 -6 -4 -8 15 -7 28 2 39 28 11 28 -48 0
-356 118 -497 191 -32 16 -64 26 -70 23 -7 -4 -9 -4 -5 1 4 4 -21 29 -55 55
-79 60 -144 125 -164 164 -9 17 -19 33 -22 36 -7 6 -47 86 -73 145 -11 26 -17
33 -18 20z"/>
<path d="M900 1520 c0 -5 5 -10 11 -10 5 0 7 5 4 10 -3 6 -8 10 -11 10 -2 0
-4 -4 -4 -10z"/>
<path d="M1236 1520 c5 -8 9 -18 9 -22 0 -3 3 -9 7 -13 3 -4 5 0 4 9 -1 9 -8
22 -16 29 -10 10 -11 9 -4 -3z"/>
<path d="M1950 1520 c-9 -6 -10 -10 -3 -10 6 0 15 5 18 10 8 12 4 12 -15 0z"/>
<path d="M1380 1516 c0 -2 8 -10 18 -17 15 -13 16 -12 3 4 -13 16 -21 21 -21
13z"/>
<path d="M1750 1498 c-52 -30 -61 -43 -12 -18 23 12 45 26 48 31 7 12 5 11
-36 -13z"/>
<path d="M2106 1503 c-6 -14 -5 -15 5 -6 7 7 10 15 7 18 -3 3 -9 -2 -12 -12z"/>
<path d="M1085 1475 c21 -20 40 -33 42 -31 8 8 -7 26 -22 26 -7 0 -17 9 -20
20 -3 11 -14 20 -23 20 -10 0 -3 -12 23 -35z"/>
<path d="M1350 1502 c0 -4 10 -13 23 -21 22 -14 22 -14 3 8 -20 22 -26 25 -26
13z"/>
<path d="M1800 1490 l-25 -21 28 12 c15 7 27 16 27 21 0 11 -1 10 -30 -12z"/>
<path d="M2039 1489 l-24 -20 28 17 c15 9 27 18 27 20 0 8 -8 4 -31 -17z"/>
<path d="M2275 1467 c-144 -103 -296 -186 -547 -297 -54 -24 -96 -45 -94 -47
3 -3 126 48 158 67 10 5 22 10 27 10 16 0 192 86 256 126 33 20 65 37 72 37 7
0 10 4 7 9 -3 4 0 8 7 8 12 0 128 80 163 112 33 30 13 20 -49 -25z"/>
<path d="M2359 1483 l-24 -28 28 24 c25 23 32 31 24 31 -2 0 -14 -12 -28 -27z"/>
<path d="M660 1496 c0 -2 8 -10 18 -17 15 -13 16 -12 3 4 -13 16 -21 21 -21
13z"/>
<path d="M920 1491 c0 -5 7 -12 16 -15 14 -5 15 -4 4 9 -14 17 -20 19 -20 6z"/>
<path d="M1181 1497 c2 -1 13 -9 24 -17 19 -14 19 -14 6 3 -7 9 -18 17 -24 17
-6 0 -8 -1 -6 -3z"/>
<path d="M1271 1483 c-1 -13 3 -23 8 -23 5 0 17 -7 25 -16 9 -8 16 -11 16 -5
0 5 -8 16 -18 23 -11 7 -21 20 -25 28 -4 10 -6 8 -6 -7z"/>
<path d="M561 1484 c-1 -15 30 -106 35 -101 2 2 -5 28 -15 58 -11 30 -20 49
-20 43z"/>
<path d="M1184 1457 c21 -19 53 -42 70 -52 45 -26 13 3 -54 49 l-55 38 39 -35z"/>
<path d="M656 1468 c42 -71 155 -198 224 -253 75 -60 166 -106 360 -183 69
-28 151 -62 184 -77 32 -14 60 -24 63 -22 2 3 -40 23 -94 46 -54 24 -107 47
-118 52 -11 5 -69 29 -129 53 -201 83 -323 175 -445 339 -39 52 -64 76 -45 45z"/>
<path d="M1030 1477 c0 -3 12 -12 26 -22 15 -9 23 -12 20 -6 -7 11 -46 35 -46
28z"/>
<path d="M1495 1460 c10 -11 20 -20 23 -20 3 0 -3 9 -13 20 -10 11 -20 20 -23
20 -3 0 3 -9 13 -20z"/>
<path d="M1635 1460 c-3 -6 1 -7 9 -4 18 7 21 14 7 14 -6 0 -13 -4 -16 -10z"/>
<path d="M2200 1450 l-25 -21 28 12 c15 7 27 16 27 21 0 11 -1 10 -30 -12z"/>
<path d="M2360 1455 c-7 -8 -8 -15 -2 -15 5 0 15 7 22 15 7 8 8 15 2 15 -5 0
-15 -7 -22 -15z"/>
<path d="M751 1392 c97 -111 217 -208 312 -251 45 -21 93 -41 107 -45 24 -6 7
3 -115 59 -77 35 -135 81 -264 208 -95 93 -98 95 -40 29z"/>
<path d="M960 1456 c0 -2 8 -10 18 -17 15 -13 16 -12 3 4 -13 16 -21 21 -21
13z"/>
<path d="M1400 1456 c0 -2 7 -7 16 -10 8 -3 12 -2 9 4 -6 10 -25 14 -25 6z"/>
<path d="M1645 1440 c-3 -5 -1 -10 4 -10 6 0 11 5 11 10 0 6 -2 10 -4 10 -3 0
-8 -4 -11 -10z"/>
<path d="M1638 1404 c-49 -24 -88 -46 -88 -48 0 -8 154 65 170 80 21 20 14 18
-82 -32z"/>
<path d="M2010 1439 c0 -5 5 -7 10 -4 6 3 10 8 10 11 0 2 -4 4 -10 4 -5 0 -10
-5 -10 -11z"/>
<path d="M1145 1430 c3 -5 8 -10 11 -10 2 0 4 5 4 10 0 6 -5 10 -11 10 -5 0
-7 -4 -4 -10z"/>
<path d="M1480 1436 c0 -2 8 -10 18 -17 15 -13 16 -12 3 4 -13 16 -21 21 -21
13z"/>
<path d="M1765 1420 c-39 -26 -26 -26 22 0 21 11 31 20 23 20 -8 0 -28 -9 -45
-20z"/>
<path d="M1310 1401 c19 -17 38 -31 43 -31 6 0 -3 10 -19 22 -50 37 -60 41
-24 9z"/>
<path d="M1440 1427 c0 -2 18 -18 40 -36 48 -39 53 -34 8 8 -29 27 -48 38 -48
28z"/>
<path d="M2125 1405 c-22 -13 -37 -25 -33 -25 9 0 78 41 78 46 0 6 -3 5 -45
-21z"/>
<path d="M2345 1389 c-21 -22 -52 -47 -67 -55 -31 -16 -35 -24 -14 -24 14 0
126 101 126 114 0 10 -3 8 -45 -35z"/>
<path d="M1170 1410 c0 -6 7 -10 15 -10 8 0 15 2 15 4 0 2 -7 6 -15 10 -8 3
-15 1 -15 -4z"/>
<path d="M1355 1411 c-9 -15 15 -25 28 -12 9 9 7 10 -7 5 -13 -5 -17 -4 -12 4
4 7 5 12 2 12 -3 0 -7 -4 -11 -9z"/>
<path d="M2000 1400 c-13 -11 -19 -20 -14 -20 13 1 61 40 48 40 -6 0 -21 -9
-34 -20z"/>
<path d="M2066 1404 c-11 -8 -16 -14 -10 -14 13 0 39 18 34 24 -3 2 -14 -2
-24 -10z"/>
<path d="M1076 1396 c10 -8 21 -12 24 -10 5 6 -21 24 -34 24 -6 0 -1 -6 10
-14z"/>
<path d="M1840 1399 c0 -5 5 -7 10 -4 6 3 10 8 10 11 0 2 -4 4 -10 4 -5 0 -10
-5 -10 -11z"/>
<path d="M2240 1382 c-46 -37 -187 -122 -203 -122 -7 0 -17 -4 -22 -9 -6 -5
-55 -28 -110 -51 -55 -23 -120 -50 -145 -60 -25 -11 -68 -27 -97 -36 -29 -9
-51 -21 -50 -28 1 -6 -5 -10 -13 -8 -12 3 -13 1 -2 -10 11 -11 16 -10 26 4 7
10 17 14 21 10 5 -4 5 -1 1 6 -5 8 0 12 14 12 14 0 19 -4 15 -12 -4 -7 -1 -6
7 2 13 16 100 60 117 60 5 0 26 9 48 19 21 11 63 29 93 41 85 34 124 52 140
66 8 7 22 14 30 16 8 2 17 5 20 8 3 3 25 18 50 35 43 28 109 85 99 85 -2 0
-20 -13 -39 -28z"/>
<path d="M840 1375 c13 -14 26 -25 28 -25 3 0 -5 11 -18 25 -13 14 -26 25 -28
25 -3 0 5 -11 18 -25z"/>
<path d="M1216 1392 c-3 -6 -1 -14 5 -17 14 -9 20 -2 10 14 -6 8 -11 9 -15 3z"/>
<path d="M2289 1383 c-13 -17 -13 -17 6 -3 11 8 22 16 24 17 2 2 0 3 -6 3 -6
0 -17 -8 -24 -17z"/>
<path d="M1310 1370 c14 -11 30 -24 37 -30 15 -12 26 -13 19 -1 -3 5 -23 19
-43 30 -36 20 -36 20 -13 1z"/>
<path d="M2025 1380 c-3 -5 -1 -10 4 -10 6 0 11 5 11 10 0 6 -2 10 -4 10 -3 0
-8 -4 -11 -10z"/>
<path d="M1175 1370 c3 -5 8 -10 11 -10 2 0 4 5 4 10 0 6 -5 10 -11 10 -5 0
-7 -4 -4 -10z"/>
<path d="M1250 1370 c0 -5 9 -14 20 -20 11 -6 20 -7 20 -3 0 5 -9 14 -20 21
-11 7 -20 8 -20 2z"/>
<path d="M1785 1370 c-3 -6 1 -7 9 -4 18 7 21 14 7 14 -6 0 -13 -4 -16 -10z"/>
<path d="M1985 1324 c-49 -30 -85 -54 -80 -54 14 0 162 87 170 100 9 14 9 15
-90 -46z"/>
<path d="M600 1366 c0 -17 52 -112 95 -171 76 -106 139 -162 245 -215 54 -27
177 -70 199 -69 9 0 -21 13 -66 29 -219 76 -330 170 -439 374 -19 33 -34 57
-34 52z"/>
<path d="M1386 1361 c-3 -5 2 -15 12 -22 15 -12 16 -12 5 2 -7 9 -10 19 -6 22
3 4 4 7 0 7 -3 0 -8 -4 -11 -9z"/>
<path d="M1420 1355 c7 -8 16 -13 20 -10 4 2 15 -4 25 -15 10 -11 25 -20 34
-19 13 0 13 2 1 6 -8 3 -23 14 -34 24 -10 10 -23 16 -28 13 -4 -3 -8 0 -8 5 0
6 -5 11 -11 11 -8 0 -8 -5 1 -15z"/>
<path d="M1605 1346 c-27 -14 -47 -25 -44 -25 9 -1 99 39 99 44 0 7 -1 7 -55
-19z"/>
<path d="M2260 1360 c0 -5 5 -10 11 -10 5 0 7 5 4 10 -3 6 -8 10 -11 10 -2 0
-4 -4 -4 -10z"/>
<path d="M2365 1313 c-33 -31 -55 -54 -48 -52 13 5 116 100 111 104 -2 2 -30
-22 -63 -52z"/>
<path d="M555 1321 c13 -83 154 -266 263 -340 37 -26 207 -101 225 -100 7 0 1
5 -13 11 -150 66 -230 112 -280 160 -99 96 -145 162 -186 267 l-14 36 5 -34z"/>
<path d="M1160 1346 c0 -3 9 -10 20 -16 11 -6 20 -8 20 -6 0 3 -9 10 -20 16
-11 6 -20 8 -20 6z"/>
<path d="M1960 1340 c-9 -6 -10 -10 -3 -10 6 0 15 5 18 10 8 12 4 12 -15 0z"/>
<path d="M2226 1335 c-11 -8 -15 -15 -9 -15 6 0 16 7 23 15 16 19 11 19 -14 0z"/>
<path d="M1306 1332 c15 -14 84 -54 84 -49 0 6 -78 57 -87 57 -4 0 -3 -4 3 -8z"/>
<path d="M1250 1325 c0 -6 56 -35 67 -35 4 0 -7 9 -25 20 -33 20 -42 24 -42
15z"/>
<path d="M1420 1326 c0 -3 9 -10 20 -16 11 -6 20 -8 20 -6 0 3 -9 10 -20 16
-11 6 -20 8 -20 6z"/>
<path d="M1694 1314 c-18 -14 -18 -14 6 -3 31 14 36 19 24 19 -6 0 -19 -7 -30
-16z"/>
<path d="M2382 1289 c-24 -23 -41 -44 -37 -47 5 -5 35 24 74 71 22 28 8 19
-37 -24z"/>
<path d="M960 1316 c0 -6 86 -59 165 -101 39 -21 75 -42 82 -47 7 -6 18 -8 25
-6 7 3 -7 14 -32 26 -70 33 -193 102 -211 118 -15 13 -29 18 -29 10z"/>
<path d="M1222 1307 c10 -7 67 -41 128 -76 61 -36 106 -67 101 -71 -6 -3 0
-12 12 -19 20 -13 21 -13 8 2 -18 23 -5 21 30 -4 l29 -20 0 39 c0 31 -5 43
-25 56 -14 9 -25 12 -25 7 0 -5 9 -13 20 -16 13 -4 20 -15 20 -31 0 -31 -12
-30 -63 4 -53 36 -236 142 -245 142 -4 0 1 -6 10 -13z"/>
<path d="M1414 1301 c4 -5 29 -23 57 -41 28 -17 48 -27 45 -21 -4 5 -29 23
-57 41 -28 17 -48 27 -45 21z"/>
<path d="M768 1285 c10 -20 60 -68 98 -95 11 -8 6 -3 -10 12 -17 15 -46 45
-65 65 -18 21 -29 29 -23 18z"/>
<path d="M905 1280 c10 -11 20 -20 23 -20 3 0 -3 9 -13 20 -10 11 -20 20 -23
20 -3 0 3 -9 13 -20z"/>
<path d="M1200 1281 c24 -20 40 -26 40 -16 0 2 -15 12 -32 20 l-33 16 25 -20z"/>
<path d="M1580 1290 c-8 -5 -10 -10 -5 -10 6 0 17 5 25 10 8 5 11 10 5 10 -5
0 -17 -5 -25 -10z"/>
<path d="M1750 1290 c-9 -6 -10 -10 -3 -10 6 0 15 5 18 10 8 12 4 12 -15 0z"/>
<path d="M1870 1290 c-9 -6 -10 -10 -3 -10 6 0 15 5 18 10 8 12 4 12 -15 0z"/>
<path d="M2199 1278 c-19 -13 -46 -29 -61 -37 -16 -8 -26 -16 -24 -19 6 -6
104 48 117 65 16 19 7 16 -32 -9z"/>
<path d="M1758 1269 c-21 -11 -38 -22 -38 -24 0 -6 49 15 75 32 30 20 5 15
-37 -8z"/>
<path d="M1340 1272 c0 -6 9 -12 20 -15 11 -3 20 -3 20 -1 0 2 -9 8 -20 14
-11 6 -20 7 -20 2z"/>
<path d="M1400 1276 c0 -2 16 -16 35 -30 19 -15 35 -23 35 -19 0 4 -16 18 -35
31 -19 12 -35 20 -35 18z"/>
<path d="M2119 1259 l-24 -20 28 17 c15 9 27 18 27 20 0 8 -8 4 -31 -17z"/>
<path d="M697 1242 c10 -19 49 -65 86 -103 57 -58 86 -78 180 -124 102 -50
282 -116 310 -114 7 0 -19 11 -58 25 -270 94 -409 180 -514 319 l-22 30 18
-33z"/>
<path d="M975 1260 c3 -5 11 -10 16 -10 6 0 7 5 4 10 -3 6 -11 10 -16 10 -6 0
-7 -4 -4 -10z"/>
<path d="M1576 1255 c-11 -8 -15 -15 -10 -15 6 0 19 7 30 15 10 8 15 14 9 14
-5 0 -19 -6 -29 -14z"/>
<path d="M1640 1260 c-8 -5 -10 -10 -5 -10 6 0 17 5 25 10 8 5 11 10 5 10 -5
0 -17 -5 -25 -10z"/>
<path d="M1794 1255 c-18 -13 -18 -14 4 -8 12 3 25 9 28 14 8 14 -10 11 -32
-6z"/>
<path d="M1865 1260 c-3 -6 1 -7 9 -4 18 7 21 14 7 14 -6 0 -13 -4 -16 -10z"/>
<path d="M1175 1244 c24 -19 75 -46 75 -41 0 6 -79 57 -87 57 -5 0 1 -8 12
-16z"/>
<path d="M2245 1227 c-54 -32 -162 -87 -265 -135 -100 -47 -331 -123 -354
-117 -19 6 -20 5 -3 -5 37 -23 329 84 552 203 95 51 131 74 124 80 -2 3 -26
-9 -54 -26z"/>
<path d="M550 1246 c0 -11 46 -84 77 -123 111 -139 218 -209 417 -272 143 -45
152 -38 11 10 -188 63 -253 99 -346 193 -44 44 -96 107 -115 139 -32 51 -44
66 -44 53z"/>
<path d="M1270 1245 c0 -2 10 -10 23 -16 20 -11 21 -11 8 4 -13 16 -31 23 -31
12z"/>
<path d="M1780 1220 c-30 -16 -50 -29 -45 -29 6 0 35 13 65 29 30 16 51 29 45
29 -5 0 -35 -13 -65 -29z"/>
<path d="M2390 1240 c-9 -6 -10 -10 -3 -10 6 0 15 5 18 10 8 12 4 12 -15 0z"/>
<path d="M982 1224 c10 -10 20 -16 22 -13 3 3 -5 11 -17 18 -21 13 -21 12 -5
-5z"/>
<path d="M1020 1235 c0 -2 18 -14 40 -25 22 -11 40 -18 40 -15 0 2 -18 14 -40
25 -22 11 -40 18 -40 15z"/>
<path d="M1590 1230 c-8 -5 -10 -10 -5 -10 6 0 17 5 25 10 8 5 11 10 5 10 -5
0 -17 -5 -25 -10z"/>
<path d="M1628 1204 c-38 -19 -68 -37 -68 -39 0 -5 139 62 149 71 14 13 -23
-2 -81 -32z"/>
<path d="M1740 1225 c-14 -8 -20 -14 -14 -15 5 0 19 7 30 15 24 18 16 19 -16
0z"/>
<path d="M2020 1210 c-30 -16 -50 -29 -45 -29 6 0 35 13 65 29 30 16 51 29 45
29 -5 0 -35 -13 -65 -29z"/>
<path d="M2295 1216 c-41 -32 -265 -148 -345 -180 -36 -14 -139 -46 -229 -71
-90 -25 -171 -51 -180 -56 -15 -10 -15 -10 0 -6 9 3 85 23 170 46 199 52 247
70 397 144 161 80 164 82 195 111 14 13 29 21 33 17 4 -3 4 0 0 7 -9 15 -5 16
-41 -12z"/>
<path d="M1411 1226 c13 -11 99 -57 99 -53 0 6 -86 57 -96 57 -4 0 -5 -2 -3
-4z"/>
<path d="M1343 1208 c15 -7 27 -15 27 -20 0 -4 8 -8 17 -8 15 0 15 2 -2 14
-11 7 -31 16 -45 19 -23 6 -22 5 3 -5z"/>
<path d="M2335 1182 c-54 -51 -88 -73 -165 -106 -36 -16 -84 -37 -106 -47 -75
-33 -200 -72 -404 -124 -57 -14 -111 -31 -120 -36 -11 -7 -9 -8 9 -3 16 4 21
3 17 -5 -10 -16 5 -13 18 4 9 12 60 26 216 60 8 2 60 18 115 35 201 65 388
162 443 231 32 39 25 36 -23 -9z"/>
<path d="M1260 1202 c0 -5 8 -12 18 -16 9 -3 40 -19 67 -36 28 -16 57 -33 65
-36 8 -4 17 -10 20 -14 11 -14 81 -52 87 -47 9 9 -19 32 -67 56 -25 12 -78 39
-117 62 -40 22 -73 36 -73 31z"/>
<path d="M1652 1188 c-23 -11 -41 -23 -38 -25 2 -2 26 7 53 21 58 30 46 34
-15 4z"/>
<path d="M1975 1159 c-49 -27 -85 -48 -80 -48 6 0 53 22 105 49 52 27 88 49
80 49 -8 -1 -55 -23 -105 -50z"/>
<path d="M2348 1156 c-31 -30 -81 -66 -112 -82 -30 -15 -54 -30 -52 -32 6 -5
85 37 126 67 35 26 50 39 84 79 32 37 14 24 -46 -32z"/>
<path d="M1040 1192 c0 -6 9 -12 20 -15 11 -3 20 -3 20 -1 0 2 -9 8 -20 14
-11 6 -20 7 -20 2z"/>
<path d="M1117 1179 c7 -7 15 -10 18 -7 3 3 -2 9 -12 12 -14 6 -15 5 -6 -5z"/>
<path d="M1645 1159 c-33 -16 -49 -27 -35 -23 29 8 120 53 105 53 -5 -1 -37
-14 -70 -30z"/>
<path d="M2030 1150 c-30 -16 -86 -42 -124 -57 -38 -15 -64 -29 -59 -30 11 -4
232 93 248 108 17 17 -9 8 -65 -21z"/>
<path d="M907 1159 c14 -17 193 -113 233 -124 14 -4 -22 17 -80 47 -58 29
-118 62 -135 73 -21 13 -26 15 -18 4z"/>
<path d="M1130 1145 c25 -13 50 -24 55 -24 6 0 -10 11 -35 24 -25 13 -49 24
-55 24 -5 0 10 -11 35 -24z"/>
<path d="M1150 1166 c0 -2 7 -7 16 -10 8 -3 12 -2 9 4 -6 10 -25 14 -25 6z"/>
<path d="M1315 1118 c99 -52 195 -98 195 -93 0 6 -237 125 -247 125 -5 -1 19
-15 52 -32z"/>
<path d="M1850 1129 c-47 -24 -26 -24 25 1 22 11 33 19 25 19 -8 -1 -31 -9
-50 -20z"/>
<path d="M1260 1116 c0 -2 7 -7 16 -10 8 -3 12 -2 9 4 -6 10 -25 14 -25 6z"/>
<path d="M1580 1105 c-14 -8 -20 -14 -15 -14 6 0 21 6 35 14 14 8 21 14 15 14
-5 0 -21 -6 -35 -14z"/>
<path d="M1220 1104 c0 -7 52 -25 57 -20 2 2 -10 8 -26 14 -17 6 -31 9 -31 6z"/>
<path d="M1300 1096 c0 -2 7 -7 16 -10 8 -3 12 -2 9 4 -6 10 -25 14 -25 6z"/>
<path d="M1207 1079 c7 -7 15 -10 18 -7 3 3 -2 9 -12 12 -14 6 -15 5 -6 -5z"/>
<path d="M1695 1064 c-27 -13 -43 -24 -35 -23 8 0 35 11 60 24 58 31 40 31
-25 -1z"/>
<path d="M1310 1065 c14 -8 30 -14 35 -14 6 0 -1 6 -15 14 -14 8 -29 14 -35
14 -5 0 1 -6 15 -14z"/>
<path d="M2273 1059 c-18 -12 -33 -23 -33 -25 0 -6 35 9 51 23 9 7 19 10 24 6
4 -5 5 -2 1 5 -9 15 -5 16 -43 -9z"/>
<path d="M1693 1036 c-68 -29 -116 -58 -63 -38 72 29 163 71 150 71 -8 -1 -47
-15 -87 -33z"/>
<path d="M1275 1050 c3 -5 10 -10 16 -10 5 0 60 -23 121 -50 62 -28 108 -46
102 -40 -9 9 -228 110 -239 110 -4 0 -3 -4 0 -10z"/>
<path d="M1752 1033 c-35 -14 -61 -27 -59 -29 4 -4 126 42 135 51 11 11 -15 3
-76 -22z"/>
<path d="M1361 1046 c10 -9 69 -36 69 -32 0 6 -55 36 -66 36 -4 0 -5 -2 -3 -4z"/>
<path d="M1620 1030 c-9 -6 -10 -10 -3 -10 6 0 15 5 18 10 8 12 4 12 -15 0z"/>
<path d="M2135 1027 c-16 -11 -124 -51 -194 -73 -8 -3 -11 -7 -8 -10 7 -7 171
53 212 77 16 11 25 19 20 19 -6 0 -19 -6 -30 -13z"/>
<path d="M1194 1015 c11 -8 25 -15 32 -15 7 0 59 -18 115 -40 56 -22 104 -38
106 -36 5 4 -123 55 -217 87 -42 14 -50 15 -36 4z"/>
<path d="M2193 1017 c-38 -14 -52 -27 -30 -27 9 0 19 5 22 10 4 6 10 8 15 5 4
-3 13 2 20 10 14 17 15 17 -27 2z"/>
<path d="M2280 1020 c-8 -5 -10 -10 -5 -10 6 0 17 5 25 10 8 5 11 10 5 10 -5
0 -17 -5 -25 -10z"/>
<path d="M1440 1006 c0 -2 7 -7 16 -10 8 -3 12 -2 9 4 -6 10 -25 14 -25 6z"/>
<path d="M1516 987 c3 -10 9 -15 12 -12 3 3 0 11 -7 18 -10 9 -11 8 -5 -6z"/>
<path d="M1570 984 l-25 -15 25 7 c28 7 35 12 29 18 -2 2 -15 -2 -29 -10z"/>
<path d="M2083 968 c-24 -11 -43 -24 -43 -28 0 -4 16 1 36 11 21 10 40 16 44
14 5 -3 10 2 14 10 7 19 0 18 -51 -7z"/>
<path d="M1573 957 c-13 -5 -23 -14 -23 -19 0 -5 5 -6 11 -3 6 4 22 10 37 14
18 5 22 9 12 13 -8 3 -25 1 -37 -5z"/>
<path d="M1835 920 c-33 -10 -51 -18 -40 -19 11 0 45 8 75 19 71 23 44 23 -35
0z"/>
<path d="M1975 924 l-30 -14 35 6 c19 3 39 10 45 15 14 14 -16 9 -50 -7z"/>
<path d="M1885 901 c-11 -5 -51 -14 -88 -21 -37 -7 -66 -15 -63 -17 5 -5 130
20 181 36 20 6 23 9 10 10 -11 0 -29 -4 -40 -8z"/>
<path d="M1198 893 c6 -2 18 -2 25 0 6 3 1 5 -13 5 -14 0 -19 -2 -12 -5z"/>
<path d="M1305 890 c11 -5 29 -8 40 -8 16 0 15 2 -5 8 -34 11 -60 11 -35 0z"/>
<path d="M1685 888 c-22 -5 -51 -11 -64 -14 -13 -3 -21 -7 -18 -10 8 -8 127
17 127 27 0 5 -1 9 -2 8 -2 -1 -21 -5 -43 -11z"/>
<path d="M1748 893 c7 -3 16 -2 19 1 4 3 -2 6 -13 5 -11 0 -14 -3 -6 -6z"/>
<path d="M1248 883 c7 -3 16 -2 19 1 4 3 -2 6 -13 5 -11 0 -14 -3 -6 -6z"/>
<path d="M1090 866 c20 -8 51 -16 70 -19 19 -4 8 2 -25 13 -67 22 -100 26 -45
6z"/>
<path d="M1385 870 c19 -8 73 -14 64 -6 -2 2 -22 6 -44 9 -28 5 -34 4 -20 -3z"/>
<path d="M1318 863 c7 -3 16 -2 19 1 4 3 -2 6 -13 5 -11 0 -14 -3 -6 -6z"/>
<path d="M2365 861 c-3 -5 -2 -12 3 -15 5 -3 9 1 9 9 0 17 -3 19 -12 6z"/>
<path d="M1688 853 c6 -2 18 -2 25 0 6 3 1 5 -13 5 -14 0 -19 -2 -12 -5z"/>
<path d="M2415 840 c-10 -11 -14 -20 -9 -20 5 0 15 9 22 20 7 11 11 20 9 20
-2 0 -12 -9 -22 -20z"/>
<path d="M1408 843 c7 -3 16 -2 19 1 4 3 -2 6 -13 5 -11 0 -14 -3 -6 -6z"/>
<path d="M1628 843 c6 -2 18 -2 25 0 6 3 1 5 -13 5 -14 0 -19 -2 -12 -5z"/>
<path d="M1980 829 c-36 -10 -117 -25 -180 -33 -64 -7 -95 -14 -70 -14 40 -1
73 2 224 23 35 5 106 32 106 41 0 6 -7 4 -80 -17z"/>
<path d="M2313 837 c-22 -9 -32 -27 -15 -27 11 1 46 29 41 34 -2 2 -14 -1 -26
-7z"/>
<path d="M1245 825 c28 -7 61 -13 75 -13 14 0 -2 6 -35 14 -76 17 -107 16 -40
-1z"/>
<path d="M1468 833 c7 -3 16 -2 19 1 4 3 -2 6 -13 5 -11 0 -14 -3 -6 -6z"/>
<path d="M1573 833 c9 -2 23 -2 30 0 6 3 -1 5 -18 5 -16 0 -22 -2 -12 -5z"/>
<path d="M895 820 c-3 -6 1 -7 9 -4 9 3 16 1 16 -4 0 -27 228 -72 390 -76 69
-2 103 -2 75 0 -117 8 -256 27 -330 46 -44 11 -90 22 -103 25 -12 3 -25 9 -28
14 -7 12 -21 11 -29 -1z"/>
<path d="M677 761 c107 -103 252 -159 406 -157 42 1 77 -2 77 -6 0 -8 58 11
64 20 2 4 -28 6 -67 5 -168 -3 -341 50 -468 143 l-74 55 62 -60z"/>
<path d="M1182 815 c8 -8 156 -35 186 -34 15 1 -20 9 -78 20 -123 21 -115 20
-108 14z"/>
<path d="M1458 813 c12 -2 30 -2 40 0 9 3 -1 5 -23 4 -22 0 -30 -2 -17 -4z"/>
<path d="M2170 810 c-12 -7 -10 -9 7 -7 12 0 19 5 17 9 -6 10 -6 10 -24 -2z"/>
<path d="M614 784 c23 -48 112 -120 201 -164 114 -57 204 -68 390 -49 11 1
-47 5 -130 9 -117 5 -162 11 -203 28 -78 30 -176 98 -228 156 -37 42 -42 45
-30 20z"/>
<path d="M1368 803 c6 -2 18 -2 25 0 6 3 1 5 -13 5 -14 0 -19 -2 -12 -5z"/>
<path d="M1621 799 c-35 -4 -66 -11 -69 -14 -7 -6 90 3 153 15 32 6 34 8 10 8
-16 0 -59 -4 -94 -9z"/>
<path d="M2253 803 c-7 -2 -13 -9 -13 -15 0 -7 5 -7 13 1 8 6 17 8 20 4 4 -3
7 -1 7 5 0 13 -7 14 -27 5z"/>
<path d="M2363 793 c0 -9 4 -10 14 -2 7 6 13 12 13 14 0 1 -6 2 -13 2 -8 0
-14 -6 -14 -14z"/>
<path d="M1458 793 c12 -2 32 -2 45 0 12 2 2 4 -23 4 -25 0 -35 -2 -22 -4z"/>
<path d="M2000 784 c-25 -7 -58 -13 -75 -13 -22 -1 -26 -4 -15 -10 8 -6 17 -8
20 -6 4 2 21 7 38 10 38 6 82 23 82 30 0 3 -1 4 -2 4 -2 -1 -23 -7 -48 -15z"/>
<path d="M2110 788 c-14 -5 -59 -20 -100 -33 -48 -15 -61 -22 -35 -18 22 3 70
16 107 29 36 12 70 19 74 16 4 -4 4 -1 0 6 -8 14 -11 14 -46 0z"/>
<path d="M2396 781 c-10 -11 -32 -25 -49 -32 -18 -7 -41 -22 -52 -33 -17 -16
-15 -16 17 3 21 12 42 20 48 16 6 -3 13 1 16 9 3 9 12 16 20 16 8 0 14 7 14
16 0 8 5 12 10 9 6 -3 10 -1 10 4 0 17 -15 13 -34 -8z"/>
<path d="M880 785 c0 -2 9 -9 21 -15 27 -15 119 -29 119 -19 0 5 -13 9 -29 9
-16 0 -47 7 -70 15 -22 8 -41 12 -41 10z"/>
<path d="M2288 759 c-32 -16 -58 -31 -58 -34 0 -10 106 41 115 56 8 12 8 12
-57 -22z"/>
<path d="M1418 773 c12 -2 30 -2 40 0 9 3 -1 5 -23 4 -22 0 -30 -2 -17 -4z"/>
<path d="M1633 773 c9 -2 25 -2 35 0 9 3 1 5 -18 5 -19 0 -27 -2 -17 -5z"/>
<path d="M2120 744 c-36 -13 -83 -24 -105 -25 -22 0 -49 -4 -60 -9 -45 -21
124 4 184 26 36 14 67 27 70 29 10 10 -27 2 -89 -21z"/>
<path d="M1435 750 c34 -5 64 -4 70 1 5 5 -18 8 -60 8 l-70 -2 60 -7z"/>
<path d="M1675 750 c-132 -7 -114 -14 35 -15 52 0 98 4 101 9 4 4 16 3 28 -4
12 -6 39 -9 59 -7 36 4 36 4 -8 6 -38 3 -41 4 -20 11 29 9 -7 9 -195 0z"/>
<path d="M1045 741 c36 -15 81 -23 70 -13 -5 5 -28 12 -50 16 -25 3 -33 3 -20
-3z"/>
<path d="M1130 722 c0 -5 20 -12 45 -14 25 -2 45 0 45 4 0 5 -10 8 -22 8 -13
0 -33 3 -45 6 -13 4 -23 2 -23 -4z"/>
<path d="M1249 707 c4 -4 48 -6 97 -5 l89 3 -97 5 c-53 3 -94 1 -89 -3z"/>
<path d="M1453 713 c9 -2 25 -2 35 0 9 3 1 5 -18 5 -19 0 -27 -2 -17 -5z"/>
<path d="M2175 710 c-13 -5 -14 -9 -5 -9 8 0 24 4 35 9 13 5 14 9 5 9 -8 0
-24 -4 -35 -9z"/>
<path d="M1748 703 c29 -2 74 -2 100 0 26 2 2 3 -53 3 -55 0 -76 -1 -47 -3z"/>
<path d="M1908 703 c7 -3 16 -2 19 1 4 3 -2 6 -13 5 -11 0 -14 -3 -6 -6z"/>
<path d="M2225 690 c-27 -12 -33 -19 -20 -19 11 0 31 8 45 19 30 24 27 24 -25
0z"/>
<path d="M1628 693 c7 -3 16 -2 19 1 4 3 -2 6 -13 5 -11 0 -14 -3 -6 -6z"/>
<path d="M2130 689 c0 -5 5 -7 10 -4 6 3 10 8 10 11 0 2 -4 4 -10 4 -5 0 -10
-5 -10 -11z"/>
<path d="M1398 683 c12 -2 32 -2 45 0 12 2 2 4 -23 4 -25 0 -35 -2 -22 -4z"/>
<path d="M1698 683 c12 -2 30 -2 40 0 9 3 -1 5 -23 4 -22 0 -30 -2 -17 -4z"/>
<path d="M2051 680 c-19 -5 -40 -6 -47 -3 -7 2 -21 0 -30 -5 -24 -13 92 -7
126 7 21 8 22 10 5 9 -11 0 -35 -4 -54 -8z"/>
<path d="M1590 670 c8 -5 24 -9 35 -9 20 0 20 0 0 9 -11 5 -27 9 -35 9 -13 1
-13 0 0 -9z"/>
<path d="M1798 673 c12 -2 30 -2 40 0 9 3 -1 5 -23 4 -22 0 -30 -2 -17 -4z"/>
<path d="M1895 669 c5 -6 55 0 55 7 0 3 -13 3 -29 2 -16 -1 -28 -5 -26 -9z"/>
<path d="M2143 663 c-13 -2 -23 -9 -23 -15 0 -5 7 -7 16 -4 9 3 22 6 30 6 8 0
14 5 14 10 0 6 -3 9 -7 9 -5 -1 -18 -4 -30 -6z"/>
<path d="M2354 655 c-10 -8 -14 -14 -9 -15 15 0 40 18 34 24 -3 3 -14 -1 -25
-9z"/>
<path d="M1435 650 c3 -5 12 -7 20 -3 21 7 19 13 -6 13 -11 0 -18 -4 -14 -10z"/>
<path d="M1748 653 c6 -2 18 -2 25 0 6 3 1 5 -13 5 -14 0 -19 -2 -12 -5z"/>
<path d="M2240 645 c-14 -8 -20 -14 -15 -14 6 0 21 6 35 14 14 8 21 14 15 14
-5 0 -21 -6 -35 -14z"/>
<path d="M1358 645 c-5 -5 -51 -12 -95 -14 -13 0 -23 -6 -23 -11 0 -11 60 -6
104 7 12 3 16 1 12 -6 -11 -18 7 -12 34 10 21 17 22 19 3 10 -27 -14 -36 -14
-28 -1 6 10 2 14 -7 5z"/>
<path d="M1833 643 c15 -2 39 -2 55 0 15 2 2 4 -28 4 -30 0 -43 -2 -27 -4z"/>
<path d="M2030 640 l-55 -7 50 -1 c28 0 59 3 70 8 23 10 14 10 -65 0z"/>
<path d="M1635 630 c27 -12 43 -12 25 0 -8 5 -22 9 -30 9 -10 0 -8 -3 5 -9z"/>
<path d="M1748 633 c6 -2 18 -2 25 0 6 3 1 5 -13 5 -14 0 -19 -2 -12 -5z"/>
<path d="M1938 633 c6 -2 18 -2 25 0 6 3 1 5 -13 5 -14 0 -19 -2 -12 -5z"/>
<path d="M2265 615 c-27 -12 -55 -20 -61 -18 -7 2 -15 -1 -19 -7 -4 -7 2 -9
18 -6 31 5 117 43 117 50 0 7 5 9 -55 -19z"/>
<path d="M1540 624 c0 -3 21 -14 47 -26 25 -11 68 -36 95 -55 65 -47 61 -36
-4 14 -47 35 -138 79 -138 67z"/>
<path d="M1803 623 c9 -2 23 -2 30 0 6 3 -1 5 -18 5 -16 0 -22 -2 -12 -5z"/>
<path d="M2145 620 l-40 -7 35 -1 c19 0 44 3 55 8 24 10 7 10 -50 0z"/>
<path d="M1730 610 c-8 -5 -10 -10 -5 -10 6 0 17 5 25 10 8 5 11 10 5 10 -5 0
-17 -5 -25 -10z"/>
<path d="M1883 613 c9 -2 23 -2 30 0 6 3 -1 5 -18 5 -16 0 -22 -2 -12 -5z"/>
<path d="M2008 603 c18 -2 45 -2 60 0 15 2 0 4 -33 4 -33 0 -45 -2 -27 -4z"/>
<path d="M1853 593 c9 -2 23 -2 30 0 6 3 -1 5 -18 5 -16 0 -22 -2 -12 -5z"/>
<path d="M1248 583 c7 -3 16 -2 19 1 4 3 -2 6 -13 5 -11 0 -14 -3 -6 -6z"/>
<path d="M1795 580 c11 -5 29 -8 40 -8 16 0 15 2 -5 8 -34 11 -60 11 -35 0z"/>
<path d="M1901 586 c2 -2 36 -6 74 -9 54 -4 61 -4 30 3 -40 9 -112 13 -104 6z"/>
<path d="M1600 576 c0 -2 8 -10 18 -17 15 -13 16 -12 3 4 -13 16 -21 21 -21
13z"/>
<path d="M2063 573 c9 -2 23 -2 30 0 6 3 -1 5 -18 5 -16 0 -22 -2 -12 -5z"/>
<path d="M1481 544 c-12 -27 -11 -28 4 -12 10 9 16 21 13 28 -2 7 -10 -1 -17
-16z"/>
<path d="M1704 556 c11 -9 24 -16 30 -16 12 0 7 5 -24 19 -24 11 -24 11 -6 -3z"/>
<path d="M1873 563 c9 -2 23 -2 30 0 6 3 -1 5 -18 5 -16 0 -22 -2 -12 -5z"/>
<path d="M1275 550 c-3 -6 1 -7 9 -4 18 7 21 14 7 14 -6 0 -13 -4 -16 -10z"/>
<path d="M1460 553 c0 -6 -19 -35 -42 -65 -23 -29 -32 -45 -20 -35 30 27 76
96 68 104 -3 3 -6 1 -6 -4z"/>
<path d="M1808 553 c7 -3 16 -2 19 1 4 3 -2 6 -13 5 -11 0 -14 -3 -6 -6z"/>
<path d="M1955 550 c30 -8 192 -13 184 -6 -2 2 -51 6 -109 8 -58 3 -91 2 -75
-2z"/>
<path d="M1471 465 c-18 -35 -48 -78 -67 -95 -38 -33 -133 -84 -141 -76 -3 2
15 15 39 27 23 12 49 30 56 41 7 10 17 16 21 13 5 -2 19 8 32 23 13 14 16 20
7 13 -10 -7 -18 -9 -18 -4 0 12 35 45 41 38 3 -2 5 4 5 14 0 13 -23 -5 -71
-55 -38 -41 -76 -74 -84 -74 -8 0 10 22 40 50 30 27 48 49 42 50 -7 0 -13 -4
-13 -8 0 -13 -131 -108 -195 -142 -33 -17 -51 -28 -40 -25 11 4 35 8 54 11 19
2 40 9 47 15 7 6 22 8 33 4 26 -8 113 39 163 88 36 34 96 142 86 153 -3 2 -19
-25 -37 -61z m-191 -140 c0 -2 -24 -17 -52 -31 -58 -29 -58 -23 0 12 38 23 52
28 52 19z"/>
<path d="M1928 523 c7 -3 16 -2 19 1 4 3 -2 6 -13 5 -11 0 -14 -3 -6 -6z"/>
<path d="M2275 520 c3 -5 8 -10 11 -10 2 0 4 5 4 10 0 6 -5 10 -11 10 -5 0 -7
-4 -4 -10z"/>
<path d="M720 505 c22 -26 120 -56 176 -54 72 3 60 15 -17 17 -42 1 -79 10
-117 27 -34 16 -50 19 -42 10z"/>
<path d="M1058 513 c12 -2 30 -2 40 0 9 3 -1 5 -23 4 -22 0 -30 -2 -17 -4z"/>
<path d="M1178 513 c7 -3 16 -2 19 1 4 3 -2 6 -13 5 -11 0 -14 -3 -6 -6z"/>
<path d="M2008 513 c12 -2 30 -2 40 0 9 3 -1 5 -23 4 -22 0 -30 -2 -17 -4z"/>
<path d="M2078 513 c6 -2 18 -2 25 0 6 3 1 5 -13 5 -14 0 -19 -2 -12 -5z"/>
<path d="M2235 511 c-6 -11 13 -26 22 -17 4 3 0 6 -8 6 -11 0 -11 2 1 10 9 6
10 10 3 10 -6 0 -14 -4 -18 -9z"/>
<path d="M1677 489 c12 -12 24 -21 27 -18 2 2 -8 13 -22 23 l-27 19 22 -24z"/>
<path d="M1068 493 c6 -2 18 -2 25 0 6 3 1 5 -13 5 -14 0 -19 -2 -12 -5z"/>
<path d="M2115 489 c-35 -5 -32 -6 24 -8 35 0 61 2 57 6 -9 9 -32 10 -81 2z"/>
<path d="M1990 481 c0 -10 24 -21 46 -21 9 0 12 5 9 11 -4 6 -13 8 -21 5 -8
-3 -14 -1 -14 4 0 6 -4 10 -10 10 -5 0 -10 -4 -10 -9z"/>
<path d="M1190 470 c-9 -6 -10 -10 -3 -10 6 0 15 5 18 10 8 12 4 12 -15 0z"/>
<path d="M1570 468 c0 -9 5 -20 10 -23 13 -8 13 5 0 25 -8 13 -10 13 -10 -2z"/>
<path d="M1010 455 c-19 -7 -28 -13 -20 -13 8 0 31 6 50 13 19 7 28 13 20 13
-8 0 -31 -6 -50 -13z"/>
<path d="M1040 438 c-68 -25 -101 -31 -167 -32 -46 0 -77 -3 -70 -8 30 -19
222 6 252 33 5 5 16 9 25 9 9 0 25 7 36 15 25 19 24 19 -76 -17z"/>
<path d="M1125 439 c-67 -34 -156 -60 -230 -68 l-70 -8 56 -2 c36 -1 84 8 133
24 76 25 156 61 156 70 0 7 0 7 -45 -16z"/>
<path d="M1642 391 c25 -48 94 -131 109 -131 5 0 -12 26 -38 58 -26 32 -58 72
-71 88 l-23 29 23 -44z"/>
</g>
</svg>
